{"title":"Risk (All The Best) (2014) Hindi Dubbed 480p x264 AC3 700MB Team","uid":11240237,"size":731440318,"categoryP":"video","categoryS":"hd___movies","magnet":"?xt=urn:btih:7f1c2ee8d2c4e5bfcd0257bb5a26b77140e6b32f&amp;dn=Risk+%28All+The+Best%29+%282014%29+Hindi+Dubbed+480p+x264+AC3+700MB+Team&amp;tr=udp%3A%2F%2Ftracker.openbittorrent.com%3A80&amp;tr=udp%3A%2F%2Fopen.demonii.com%3A1337&amp;tr=udp%3A%2F%2Ftracker.coppersurfer.tk%3A6969&amp;tr=udp%3A%2F%2Fexodus.desync.com%3A6969","seeders":1,"leechers":1,"uploader":"inovai","files":1,"time":1413661119,"description":"Risk (All The Best) (2014) Hindi Dubbed 480p x264 AC3 700MB TeamTolly\n\nCover:\n &lt;a href=&quot;\nhttp://forum.primetimeshow.in/viewtopic.php?f=7&amp;t=783&quot; rel=&quot;nofollow&quot; target=&quot;_NEW&quot;&gt;\nhttp://forum.primetimeshow.in/viewtopic.php?f=7&amp;t=783&lt;/a&gt;\n\n\nPlot:\n\nThe movie story deals with Ravi who is badly IN NEED OF MONEY to bail out his father who was jailed in a cheating case. Ravi seeks the help of conman Chandu and they both team up to pull off a heist. They have the task of selling a land to one billionaire and in turn they get 1 crore rupees. Numerous characters come in and unexpected events take place. How they overcome all the problems and succeed forms rest of the story.\n\nScreenshots:\n &lt;a href=&quot;\nhttp://m.primetimeshow.in/share-2C4E_5442A47C.html&quot; rel=&quot;nofollow&quot; target=&quot;_NEW&quot;&gt;\nhttp://m.primetimeshow.in/share-2C4E_5442A47C.html&lt;/a&gt;\n &lt;a href=&quot;\nhttp://m.primetimeshow.in/share-0D47_5442A47C.html&quot; rel=&quot;nofollow&quot; target=&quot;_NEW&quot;&gt;\nhttp://m.primetimeshow.in/share-0D47_5442A47C.html&lt;/a&gt;\n &lt;a href=&quot;\nhttp://m.primetimeshow.in/share-F625_5442A47C.html&quot; rel=&quot;nofollow&quot; target=&quot;_NEW&quot;&gt;\nhttp://m.primetimeshow.in/share-F625_5442A47C.html&lt;/a&gt;\n &lt;a href=&quot;\nhttp://m.primetimeshow.in/share-046F_5442A47C.html&quot; rel=&quot;nofollow&quot; target=&quot;_NEW&quot;&gt;\nhttp://m.primetimeshow.in/share-046F_5442A47C.html&lt;/a&gt;\n &lt;a href=&quot;\nhttp://m.primetimeshow.in/share-CCF5_5442A47C.html&quot; rel=&quot;nofollow&quot; target=&quot;_NEW&quot;&gt;\nhttp://m.primetimeshow.in/share-CCF5_5442A47C.html&lt;/a&gt;\n\n\nTorrent Info:\n\n\nGeneral\nFile size : 698 MiB\nDuration : 2h 2mn\nOverall bit rate : 797 Kbps\nMovie name : Risk (All The Best) (2014) Hindi Dubbed 480p x264 AC3 700MB TeamTolly\n\n\nVideo\nID : 1\nFormat : AVC\nFormat/Info : Advanced Video Codec\nFormat profile : &lt;a class=&quot;__cf_email__&quot; href=&quot;/cdn-cgi/l/email-protection&quot; data-cfemail=&quot;3a72535d527a7609140b&quot;&gt;[email&amp;#160;protected]&lt;/a&gt;&lt;script cf-hash='f9e31' type=&quot;text/javascript&quot;&gt;\n/* &lt;![CDATA[ */!function(){try{var t=&quot;currentScript&quot;in document?document.currentScript:function(){for(var t=document.getElementsByTagName(&quot;script&quot;),e=t.length;e--;)if(t[e].getAttribute(&quot;cf-hash&quot;))return t[e]}();if(t&amp;&amp;t.previousSibling){var e,r,n,i,c=t.previousSibling,a=c.getAttribute(&quot;data-cfemail&quot;);if(a){for(e=&quot;&quot;,r=parseInt(a.substr(0,2),16),n=2;a.length-n;n+=2)i=parseInt(a.substr(n,2),16)^r,e+=String.fromCharCode(i);e=document.createTextNode(e),c.parentNode.replaceChild(e,c)}}}catch(u){}}();/* ]]&gt; */&lt;/script&gt;\nFormat settings, CABAC : Yes\nFormat settings, ReFrames : 4 frames\nCodec ID : V_MPEG4/ISO/AVC\nDuration : 2h 2mn\nBit rate : 411 Kbps\nWidth : 1 280 pixels\nHeight : 720 pixels\nDisplay aspect ratio : 16:9\nFrame rate mode : Constant\nFrame rate : 25.000 fps\nColor space : YUV\nChroma subsampling : 4:2:0\nBit depth : 8 bits\nScan type : Progressive\nBits/(Pixel*Frame) : 0.018\nStream size : 348 MiB (50%)\nTitle : Risk (All The Best) (2014) Hindi Dubbed 480p x264 AC3 700MB TeamTolly\nDefault : Yes\nForced : No\n\n\nAudio\nID : 2\nFormat : AC-3\nFormat/Info : Audio Coding 3\nMode extension : CM (complete main)\nFormat settings, Endianness : Big\nCodec ID : A_AC3\nDuration : 2h 2mn\nBit rate mode : Constant\nBit rate : 384 Kbps\nChannel(s) : 2 channels\nChannel positions : Front: L R\nSampling rate : 44.1 KHz\nBit depth : 16 bits\nCompression mode : Lossy\nStream size : 336 MiB (48%)\nTitle : TeamTolly\nDefault : Yes\nForced : No\n\nThanks to TeamTolly!!\n\nSeed n ENjoy!!","torrent":{"xt":"urn:btih:7f1c2ee8d2c4e5bfcd0257bb5a26b77140e6b32f","amp;dn":"Risk+%28All+The+Best%29+%282014%29+Hindi+Dubbed+480p+x264+AC3+700MB+Team","amp;tr":["udp%3A%2F%2Ftracker.openbittorrent.com%3A80","udp%3A%2F%2Fopen.demonii.com%3A1337","udp%3A%2F%2Ftracker.coppersurfer.tk%3A6969","udp%3A%2F%2Fexodus.desync.com%3A6969"],"infoHash":"7f1c2ee8d2c4e5bfcd0257bb5a26b77140e6b32f","infoHashBuffer":{"type":"Buffer","data":[127,28,46,232,210,196,229,191,205,2,87,187,90,38,183,113,64,230,179,47]},"announce":[],"urlList":[]}}